<mxfile host="app.diagrams.net" modified="2024-06-07T05:29:19.388Z" agent="Mozilla/5.0 (Windows NT 10.0; Win64; x64) AppleWebKit/537.36 (KHTML, like Gecko) Chrome/125.0.0.0 Safari/537.36" etag="ddHo0bqMjJM7_9BX3KOK" version="24.5.1" type="github">
  <diagram name="Page-1" id="m3vZYG0YwCSzo-38tZGK">
    <mxGraphModel dx="1076" dy="2021" grid="0" gridSize="10" guides="1" tooltips="1" connect="1" arrows="1" fold="1" page="0" pageScale="1" pageWidth="850" pageHeight="1100" math="0" shadow="0">
      <root>
        <mxCell id="0" />
        <mxCell id="1" parent="0" />
        <mxCell id="jOBW6AXI4wweXSDxxBhk-1" value="Fact Table" style="shape=table;startSize=30;container=1;collapsible=1;childLayout=tableLayout;fixedRows=1;rowLines=0;fontStyle=1;align=center;resizeLast=1;html=1;" parent="1" vertex="1">
          <mxGeometry x="172" y="-718" width="179" height="483" as="geometry" />
        </mxCell>
        <mxCell id="jOBW6AXI4wweXSDxxBhk-2" value="" style="shape=tableRow;horizontal=0;startSize=0;swimlaneHead=0;swimlaneBody=0;fillColor=none;collapsible=0;dropTarget=0;points=[[0,0.5],[1,0.5]];portConstraint=eastwest;top=0;left=0;right=0;bottom=1;" parent="jOBW6AXI4wweXSDxxBhk-1" vertex="1">
          <mxGeometry y="30" width="179" height="33" as="geometry" />
        </mxCell>
        <mxCell id="jOBW6AXI4wweXSDxxBhk-3" value="PK" style="shape=partialRectangle;connectable=0;fillColor=none;top=0;left=0;bottom=0;right=0;fontStyle=1;overflow=hidden;whiteSpace=wrap;html=1;" parent="jOBW6AXI4wweXSDxxBhk-2" vertex="1">
          <mxGeometry width="30" height="33" as="geometry">
            <mxRectangle width="30" height="33" as="alternateBounds" />
          </mxGeometry>
        </mxCell>
        <mxCell id="jOBW6AXI4wweXSDxxBhk-4" value="vendor_id" style="shape=partialRectangle;connectable=0;fillColor=none;top=0;left=0;bottom=0;right=0;align=left;spacingLeft=6;fontStyle=5;overflow=hidden;whiteSpace=wrap;html=1;" parent="jOBW6AXI4wweXSDxxBhk-2" vertex="1">
          <mxGeometry x="30" width="149" height="33" as="geometry">
            <mxRectangle width="149" height="33" as="alternateBounds" />
          </mxGeometry>
        </mxCell>
        <mxCell id="jOBW6AXI4wweXSDxxBhk-72" value="" style="shape=tableRow;horizontal=0;startSize=0;swimlaneHead=0;swimlaneBody=0;fillColor=none;collapsible=0;dropTarget=0;points=[[0,0.5],[1,0.5]];portConstraint=eastwest;top=0;left=0;right=0;bottom=1;" parent="jOBW6AXI4wweXSDxxBhk-1" vertex="1">
          <mxGeometry y="63" width="179" height="30" as="geometry" />
        </mxCell>
        <mxCell id="jOBW6AXI4wweXSDxxBhk-73" value="&lt;span style=&quot;font-weight: 400;&quot;&gt;FK&lt;/span&gt;" style="shape=partialRectangle;connectable=0;fillColor=none;top=0;left=0;bottom=0;right=0;fontStyle=1;overflow=hidden;whiteSpace=wrap;html=1;" parent="jOBW6AXI4wweXSDxxBhk-72" vertex="1">
          <mxGeometry width="30" height="30" as="geometry">
            <mxRectangle width="30" height="30" as="alternateBounds" />
          </mxGeometry>
        </mxCell>
        <mxCell id="jOBW6AXI4wweXSDxxBhk-74" value="&lt;span style=&quot;font-weight: 400;&quot;&gt;datetime_id&lt;/span&gt;" style="shape=partialRectangle;connectable=0;fillColor=none;top=0;left=0;bottom=0;right=0;align=left;spacingLeft=6;fontStyle=5;overflow=hidden;whiteSpace=wrap;html=1;" parent="jOBW6AXI4wweXSDxxBhk-72" vertex="1">
          <mxGeometry x="30" width="149" height="30" as="geometry">
            <mxRectangle width="149" height="30" as="alternateBounds" />
          </mxGeometry>
        </mxCell>
        <mxCell id="jOBW6AXI4wweXSDxxBhk-88" value="" style="shape=tableRow;horizontal=0;startSize=0;swimlaneHead=0;swimlaneBody=0;fillColor=none;collapsible=0;dropTarget=0;points=[[0,0.5],[1,0.5]];portConstraint=eastwest;top=0;left=0;right=0;bottom=1;" parent="jOBW6AXI4wweXSDxxBhk-1" vertex="1">
          <mxGeometry y="93" width="179" height="30" as="geometry" />
        </mxCell>
        <mxCell id="jOBW6AXI4wweXSDxxBhk-89" value="FK" style="shape=partialRectangle;connectable=0;fillColor=none;top=0;left=0;bottom=0;right=0;fontStyle=1;overflow=hidden;whiteSpace=wrap;html=1;" parent="jOBW6AXI4wweXSDxxBhk-88" vertex="1">
          <mxGeometry width="30" height="30" as="geometry">
            <mxRectangle width="30" height="30" as="alternateBounds" />
          </mxGeometry>
        </mxCell>
        <mxCell id="jOBW6AXI4wweXSDxxBhk-90" value="passenger_count_id" style="shape=partialRectangle;connectable=0;fillColor=none;top=0;left=0;bottom=0;right=0;align=left;spacingLeft=6;fontStyle=5;overflow=hidden;whiteSpace=wrap;html=1;" parent="jOBW6AXI4wweXSDxxBhk-88" vertex="1">
          <mxGeometry x="30" width="149" height="30" as="geometry">
            <mxRectangle width="149" height="30" as="alternateBounds" />
          </mxGeometry>
        </mxCell>
        <mxCell id="jOBW6AXI4wweXSDxxBhk-108" value="" style="shape=tableRow;horizontal=0;startSize=0;swimlaneHead=0;swimlaneBody=0;fillColor=none;collapsible=0;dropTarget=0;points=[[0,0.5],[1,0.5]];portConstraint=eastwest;top=0;left=0;right=0;bottom=1;" parent="jOBW6AXI4wweXSDxxBhk-1" vertex="1">
          <mxGeometry y="123" width="179" height="30" as="geometry" />
        </mxCell>
        <mxCell id="jOBW6AXI4wweXSDxxBhk-109" value="FK" style="shape=partialRectangle;connectable=0;fillColor=none;top=0;left=0;bottom=0;right=0;fontStyle=1;overflow=hidden;whiteSpace=wrap;html=1;" parent="jOBW6AXI4wweXSDxxBhk-108" vertex="1">
          <mxGeometry width="30" height="30" as="geometry">
            <mxRectangle width="30" height="30" as="alternateBounds" />
          </mxGeometry>
        </mxCell>
        <mxCell id="jOBW6AXI4wweXSDxxBhk-110" value="trip_distance_id" style="shape=partialRectangle;connectable=0;fillColor=none;top=0;left=0;bottom=0;right=0;align=left;spacingLeft=6;fontStyle=5;overflow=hidden;whiteSpace=wrap;html=1;" parent="jOBW6AXI4wweXSDxxBhk-108" vertex="1">
          <mxGeometry x="30" width="149" height="30" as="geometry">
            <mxRectangle width="149" height="30" as="alternateBounds" />
          </mxGeometry>
        </mxCell>
        <mxCell id="O07wSK2jEk8nUm2FwIZC-17" value="" style="shape=tableRow;horizontal=0;startSize=0;swimlaneHead=0;swimlaneBody=0;fillColor=none;collapsible=0;dropTarget=0;points=[[0,0.5],[1,0.5]];portConstraint=eastwest;top=0;left=0;right=0;bottom=1;" vertex="1" parent="jOBW6AXI4wweXSDxxBhk-1">
          <mxGeometry y="153" width="179" height="30" as="geometry" />
        </mxCell>
        <mxCell id="O07wSK2jEk8nUm2FwIZC-18" value="FK" style="shape=partialRectangle;connectable=0;fillColor=none;top=0;left=0;bottom=0;right=0;fontStyle=1;overflow=hidden;whiteSpace=wrap;html=1;" vertex="1" parent="O07wSK2jEk8nUm2FwIZC-17">
          <mxGeometry width="30" height="30" as="geometry">
            <mxRectangle width="30" height="30" as="alternateBounds" />
          </mxGeometry>
        </mxCell>
        <mxCell id="O07wSK2jEk8nUm2FwIZC-19" value="pickup_location_id" style="shape=partialRectangle;connectable=0;fillColor=none;top=0;left=0;bottom=0;right=0;align=left;spacingLeft=6;fontStyle=5;overflow=hidden;whiteSpace=wrap;html=1;" vertex="1" parent="O07wSK2jEk8nUm2FwIZC-17">
          <mxGeometry x="30" width="149" height="30" as="geometry">
            <mxRectangle width="149" height="30" as="alternateBounds" />
          </mxGeometry>
        </mxCell>
        <mxCell id="O07wSK2jEk8nUm2FwIZC-31" value="" style="shape=tableRow;horizontal=0;startSize=0;swimlaneHead=0;swimlaneBody=0;fillColor=none;collapsible=0;dropTarget=0;points=[[0,0.5],[1,0.5]];portConstraint=eastwest;top=0;left=0;right=0;bottom=1;" vertex="1" parent="jOBW6AXI4wweXSDxxBhk-1">
          <mxGeometry y="183" width="179" height="30" as="geometry" />
        </mxCell>
        <mxCell id="O07wSK2jEk8nUm2FwIZC-32" value="FK" style="shape=partialRectangle;connectable=0;fillColor=none;top=0;left=0;bottom=0;right=0;fontStyle=1;overflow=hidden;whiteSpace=wrap;html=1;" vertex="1" parent="O07wSK2jEk8nUm2FwIZC-31">
          <mxGeometry width="30" height="30" as="geometry">
            <mxRectangle width="30" height="30" as="alternateBounds" />
          </mxGeometry>
        </mxCell>
        <mxCell id="O07wSK2jEk8nUm2FwIZC-33" value="drop_location_id" style="shape=partialRectangle;connectable=0;fillColor=none;top=0;left=0;bottom=0;right=0;align=left;spacingLeft=6;fontStyle=5;overflow=hidden;whiteSpace=wrap;html=1;" vertex="1" parent="O07wSK2jEk8nUm2FwIZC-31">
          <mxGeometry x="30" width="149" height="30" as="geometry">
            <mxRectangle width="149" height="30" as="alternateBounds" />
          </mxGeometry>
        </mxCell>
        <mxCell id="O07wSK2jEk8nUm2FwIZC-52" value="" style="shape=tableRow;horizontal=0;startSize=0;swimlaneHead=0;swimlaneBody=0;fillColor=none;collapsible=0;dropTarget=0;points=[[0,0.5],[1,0.5]];portConstraint=eastwest;top=0;left=0;right=0;bottom=1;" vertex="1" parent="jOBW6AXI4wweXSDxxBhk-1">
          <mxGeometry y="213" width="179" height="30" as="geometry" />
        </mxCell>
        <mxCell id="O07wSK2jEk8nUm2FwIZC-53" value="FK" style="shape=partialRectangle;connectable=0;fillColor=none;top=0;left=0;bottom=0;right=0;fontStyle=1;overflow=hidden;whiteSpace=wrap;html=1;" vertex="1" parent="O07wSK2jEk8nUm2FwIZC-52">
          <mxGeometry width="30" height="30" as="geometry">
            <mxRectangle width="30" height="30" as="alternateBounds" />
          </mxGeometry>
        </mxCell>
        <mxCell id="O07wSK2jEk8nUm2FwIZC-54" value="rate_code_id" style="shape=partialRectangle;connectable=0;fillColor=none;top=0;left=0;bottom=0;right=0;align=left;spacingLeft=6;fontStyle=5;overflow=hidden;whiteSpace=wrap;html=1;" vertex="1" parent="O07wSK2jEk8nUm2FwIZC-52">
          <mxGeometry x="30" width="149" height="30" as="geometry">
            <mxRectangle width="149" height="30" as="alternateBounds" />
          </mxGeometry>
        </mxCell>
        <mxCell id="O07wSK2jEk8nUm2FwIZC-69" value="" style="shape=tableRow;horizontal=0;startSize=0;swimlaneHead=0;swimlaneBody=0;fillColor=none;collapsible=0;dropTarget=0;points=[[0,0.5],[1,0.5]];portConstraint=eastwest;top=0;left=0;right=0;bottom=1;" vertex="1" parent="jOBW6AXI4wweXSDxxBhk-1">
          <mxGeometry y="243" width="179" height="30" as="geometry" />
        </mxCell>
        <mxCell id="O07wSK2jEk8nUm2FwIZC-70" value="FK" style="shape=partialRectangle;connectable=0;fillColor=none;top=0;left=0;bottom=0;right=0;fontStyle=1;overflow=hidden;whiteSpace=wrap;html=1;" vertex="1" parent="O07wSK2jEk8nUm2FwIZC-69">
          <mxGeometry width="30" height="30" as="geometry">
            <mxRectangle width="30" height="30" as="alternateBounds" />
          </mxGeometry>
        </mxCell>
        <mxCell id="O07wSK2jEk8nUm2FwIZC-71" value="payment_type_id" style="shape=partialRectangle;connectable=0;fillColor=none;top=0;left=0;bottom=0;right=0;align=left;spacingLeft=6;fontStyle=5;overflow=hidden;whiteSpace=wrap;html=1;" vertex="1" parent="O07wSK2jEk8nUm2FwIZC-69">
          <mxGeometry x="30" width="149" height="30" as="geometry">
            <mxRectangle width="149" height="30" as="alternateBounds" />
          </mxGeometry>
        </mxCell>
        <mxCell id="O07wSK2jEk8nUm2FwIZC-76" value="" style="shape=tableRow;horizontal=0;startSize=0;swimlaneHead=0;swimlaneBody=0;fillColor=none;collapsible=0;dropTarget=0;points=[[0,0.5],[1,0.5]];portConstraint=eastwest;top=0;left=0;right=0;bottom=0;" vertex="1" parent="jOBW6AXI4wweXSDxxBhk-1">
          <mxGeometry y="273" width="179" height="30" as="geometry" />
        </mxCell>
        <mxCell id="O07wSK2jEk8nUm2FwIZC-77" value="" style="shape=partialRectangle;connectable=0;fillColor=none;top=0;left=0;bottom=0;right=0;editable=1;overflow=hidden;" vertex="1" parent="O07wSK2jEk8nUm2FwIZC-76">
          <mxGeometry width="30" height="30" as="geometry">
            <mxRectangle width="30" height="30" as="alternateBounds" />
          </mxGeometry>
        </mxCell>
        <mxCell id="O07wSK2jEk8nUm2FwIZC-78" value="fare_amount" style="shape=partialRectangle;connectable=0;fillColor=none;top=0;left=0;bottom=0;right=0;align=left;spacingLeft=6;overflow=hidden;" vertex="1" parent="O07wSK2jEk8nUm2FwIZC-76">
          <mxGeometry x="30" width="149" height="30" as="geometry">
            <mxRectangle width="149" height="30" as="alternateBounds" />
          </mxGeometry>
        </mxCell>
        <mxCell id="O07wSK2jEk8nUm2FwIZC-79" value="" style="shape=tableRow;horizontal=0;startSize=0;swimlaneHead=0;swimlaneBody=0;fillColor=none;collapsible=0;dropTarget=0;points=[[0,0.5],[1,0.5]];portConstraint=eastwest;top=0;left=0;right=0;bottom=0;" vertex="1" parent="jOBW6AXI4wweXSDxxBhk-1">
          <mxGeometry y="303" width="179" height="30" as="geometry" />
        </mxCell>
        <mxCell id="O07wSK2jEk8nUm2FwIZC-80" value="" style="shape=partialRectangle;connectable=0;fillColor=none;top=0;left=0;bottom=0;right=0;editable=1;overflow=hidden;" vertex="1" parent="O07wSK2jEk8nUm2FwIZC-79">
          <mxGeometry width="30" height="30" as="geometry">
            <mxRectangle width="30" height="30" as="alternateBounds" />
          </mxGeometry>
        </mxCell>
        <mxCell id="O07wSK2jEk8nUm2FwIZC-81" value="extra" style="shape=partialRectangle;connectable=0;fillColor=none;top=0;left=0;bottom=0;right=0;align=left;spacingLeft=6;overflow=hidden;" vertex="1" parent="O07wSK2jEk8nUm2FwIZC-79">
          <mxGeometry x="30" width="149" height="30" as="geometry">
            <mxRectangle width="149" height="30" as="alternateBounds" />
          </mxGeometry>
        </mxCell>
        <mxCell id="O07wSK2jEk8nUm2FwIZC-82" value="" style="shape=tableRow;horizontal=0;startSize=0;swimlaneHead=0;swimlaneBody=0;fillColor=none;collapsible=0;dropTarget=0;points=[[0,0.5],[1,0.5]];portConstraint=eastwest;top=0;left=0;right=0;bottom=0;" vertex="1" parent="jOBW6AXI4wweXSDxxBhk-1">
          <mxGeometry y="333" width="179" height="30" as="geometry" />
        </mxCell>
        <mxCell id="O07wSK2jEk8nUm2FwIZC-83" value="" style="shape=partialRectangle;connectable=0;fillColor=none;top=0;left=0;bottom=0;right=0;editable=1;overflow=hidden;" vertex="1" parent="O07wSK2jEk8nUm2FwIZC-82">
          <mxGeometry width="30" height="30" as="geometry">
            <mxRectangle width="30" height="30" as="alternateBounds" />
          </mxGeometry>
        </mxCell>
        <mxCell id="O07wSK2jEk8nUm2FwIZC-84" value="mta_tax" style="shape=partialRectangle;connectable=0;fillColor=none;top=0;left=0;bottom=0;right=0;align=left;spacingLeft=6;overflow=hidden;" vertex="1" parent="O07wSK2jEk8nUm2FwIZC-82">
          <mxGeometry x="30" width="149" height="30" as="geometry">
            <mxRectangle width="149" height="30" as="alternateBounds" />
          </mxGeometry>
        </mxCell>
        <mxCell id="O07wSK2jEk8nUm2FwIZC-85" value="" style="shape=tableRow;horizontal=0;startSize=0;swimlaneHead=0;swimlaneBody=0;fillColor=none;collapsible=0;dropTarget=0;points=[[0,0.5],[1,0.5]];portConstraint=eastwest;top=0;left=0;right=0;bottom=0;" vertex="1" parent="jOBW6AXI4wweXSDxxBhk-1">
          <mxGeometry y="363" width="179" height="30" as="geometry" />
        </mxCell>
        <mxCell id="O07wSK2jEk8nUm2FwIZC-86" value="" style="shape=partialRectangle;connectable=0;fillColor=none;top=0;left=0;bottom=0;right=0;editable=1;overflow=hidden;" vertex="1" parent="O07wSK2jEk8nUm2FwIZC-85">
          <mxGeometry width="30" height="30" as="geometry">
            <mxRectangle width="30" height="30" as="alternateBounds" />
          </mxGeometry>
        </mxCell>
        <mxCell id="O07wSK2jEk8nUm2FwIZC-87" value="tip_amount" style="shape=partialRectangle;connectable=0;fillColor=none;top=0;left=0;bottom=0;right=0;align=left;spacingLeft=6;overflow=hidden;" vertex="1" parent="O07wSK2jEk8nUm2FwIZC-85">
          <mxGeometry x="30" width="149" height="30" as="geometry">
            <mxRectangle width="149" height="30" as="alternateBounds" />
          </mxGeometry>
        </mxCell>
        <mxCell id="O07wSK2jEk8nUm2FwIZC-88" value="" style="shape=tableRow;horizontal=0;startSize=0;swimlaneHead=0;swimlaneBody=0;fillColor=none;collapsible=0;dropTarget=0;points=[[0,0.5],[1,0.5]];portConstraint=eastwest;top=0;left=0;right=0;bottom=0;" vertex="1" parent="jOBW6AXI4wweXSDxxBhk-1">
          <mxGeometry y="393" width="179" height="30" as="geometry" />
        </mxCell>
        <mxCell id="O07wSK2jEk8nUm2FwIZC-89" value="" style="shape=partialRectangle;connectable=0;fillColor=none;top=0;left=0;bottom=0;right=0;editable=1;overflow=hidden;" vertex="1" parent="O07wSK2jEk8nUm2FwIZC-88">
          <mxGeometry width="30" height="30" as="geometry">
            <mxRectangle width="30" height="30" as="alternateBounds" />
          </mxGeometry>
        </mxCell>
        <mxCell id="O07wSK2jEk8nUm2FwIZC-90" value="tolls_amount" style="shape=partialRectangle;connectable=0;fillColor=none;top=0;left=0;bottom=0;right=0;align=left;spacingLeft=6;overflow=hidden;" vertex="1" parent="O07wSK2jEk8nUm2FwIZC-88">
          <mxGeometry x="30" width="149" height="30" as="geometry">
            <mxRectangle width="149" height="30" as="alternateBounds" />
          </mxGeometry>
        </mxCell>
        <mxCell id="O07wSK2jEk8nUm2FwIZC-91" value="" style="shape=tableRow;horizontal=0;startSize=0;swimlaneHead=0;swimlaneBody=0;fillColor=none;collapsible=0;dropTarget=0;points=[[0,0.5],[1,0.5]];portConstraint=eastwest;top=0;left=0;right=0;bottom=0;" vertex="1" parent="jOBW6AXI4wweXSDxxBhk-1">
          <mxGeometry y="423" width="179" height="30" as="geometry" />
        </mxCell>
        <mxCell id="O07wSK2jEk8nUm2FwIZC-92" value="" style="shape=partialRectangle;connectable=0;fillColor=none;top=0;left=0;bottom=0;right=0;editable=1;overflow=hidden;" vertex="1" parent="O07wSK2jEk8nUm2FwIZC-91">
          <mxGeometry width="30" height="30" as="geometry">
            <mxRectangle width="30" height="30" as="alternateBounds" />
          </mxGeometry>
        </mxCell>
        <mxCell id="O07wSK2jEk8nUm2FwIZC-93" value="improvement_surcharge" style="shape=partialRectangle;connectable=0;fillColor=none;top=0;left=0;bottom=0;right=0;align=left;spacingLeft=6;overflow=hidden;" vertex="1" parent="O07wSK2jEk8nUm2FwIZC-91">
          <mxGeometry x="30" width="149" height="30" as="geometry">
            <mxRectangle width="149" height="30" as="alternateBounds" />
          </mxGeometry>
        </mxCell>
        <mxCell id="O07wSK2jEk8nUm2FwIZC-94" value="" style="shape=tableRow;horizontal=0;startSize=0;swimlaneHead=0;swimlaneBody=0;fillColor=none;collapsible=0;dropTarget=0;points=[[0,0.5],[1,0.5]];portConstraint=eastwest;top=0;left=0;right=0;bottom=0;" vertex="1" parent="jOBW6AXI4wweXSDxxBhk-1">
          <mxGeometry y="453" width="179" height="30" as="geometry" />
        </mxCell>
        <mxCell id="O07wSK2jEk8nUm2FwIZC-95" value="" style="shape=partialRectangle;connectable=0;fillColor=none;top=0;left=0;bottom=0;right=0;editable=1;overflow=hidden;" vertex="1" parent="O07wSK2jEk8nUm2FwIZC-94">
          <mxGeometry width="30" height="30" as="geometry">
            <mxRectangle width="30" height="30" as="alternateBounds" />
          </mxGeometry>
        </mxCell>
        <mxCell id="O07wSK2jEk8nUm2FwIZC-96" value="total_amount" style="shape=partialRectangle;connectable=0;fillColor=none;top=0;left=0;bottom=0;right=0;align=left;spacingLeft=6;overflow=hidden;" vertex="1" parent="O07wSK2jEk8nUm2FwIZC-94">
          <mxGeometry x="30" width="149" height="30" as="geometry">
            <mxRectangle width="149" height="30" as="alternateBounds" />
          </mxGeometry>
        </mxCell>
        <mxCell id="jOBW6AXI4wweXSDxxBhk-27" value="" style="shape=tableRow;horizontal=0;startSize=0;swimlaneHead=0;swimlaneBody=0;fillColor=none;collapsible=0;dropTarget=0;points=[[0,0.5],[1,0.5]];portConstraint=eastwest;top=0;left=0;right=0;bottom=0;" parent="1" vertex="1">
          <mxGeometry x="159" y="-734" width="211" height="30" as="geometry" />
        </mxCell>
        <mxCell id="jOBW6AXI4wweXSDxxBhk-28" value="" style="shape=partialRectangle;connectable=0;fillColor=none;top=0;left=0;bottom=0;right=0;editable=1;overflow=hidden;whiteSpace=wrap;html=1;" parent="jOBW6AXI4wweXSDxxBhk-27" vertex="1">
          <mxGeometry width="30" height="30" as="geometry">
            <mxRectangle width="30" height="30" as="alternateBounds" />
          </mxGeometry>
        </mxCell>
        <mxCell id="jOBW6AXI4wweXSDxxBhk-14" value="datetime_dim" style="shape=table;startSize=36;container=1;collapsible=1;childLayout=tableLayout;fixedRows=1;rowLines=0;fontStyle=1;align=center;resizeLast=1;html=1;" parent="1" vertex="1">
          <mxGeometry x="442" y="-981" width="211" height="435" as="geometry">
            <mxRectangle x="-65" y="-163" width="107" height="36" as="alternateBounds" />
          </mxGeometry>
        </mxCell>
        <mxCell id="jOBW6AXI4wweXSDxxBhk-15" value="" style="shape=tableRow;horizontal=0;startSize=0;swimlaneHead=0;swimlaneBody=0;fillColor=none;collapsible=0;dropTarget=0;points=[[0,0.5],[1,0.5]];portConstraint=eastwest;top=0;left=0;right=0;bottom=1;" parent="jOBW6AXI4wweXSDxxBhk-14" vertex="1">
          <mxGeometry y="36" width="211" height="29" as="geometry" />
        </mxCell>
        <mxCell id="jOBW6AXI4wweXSDxxBhk-16" value="PK" style="shape=partialRectangle;connectable=0;fillColor=none;top=0;left=0;bottom=0;right=0;fontStyle=1;overflow=hidden;whiteSpace=wrap;html=1;" parent="jOBW6AXI4wweXSDxxBhk-15" vertex="1">
          <mxGeometry width="41.75" height="29" as="geometry">
            <mxRectangle width="41.75" height="29" as="alternateBounds" />
          </mxGeometry>
        </mxCell>
        <mxCell id="jOBW6AXI4wweXSDxxBhk-17" value="datetime_id" style="shape=partialRectangle;connectable=0;fillColor=none;top=0;left=0;bottom=0;right=0;align=left;spacingLeft=6;fontStyle=5;overflow=hidden;whiteSpace=wrap;html=1;" parent="jOBW6AXI4wweXSDxxBhk-15" vertex="1">
          <mxGeometry x="41.75" width="169.25" height="29" as="geometry">
            <mxRectangle width="169.25" height="29" as="alternateBounds" />
          </mxGeometry>
        </mxCell>
        <mxCell id="jOBW6AXI4wweXSDxxBhk-18" value="" style="shape=tableRow;horizontal=0;startSize=0;swimlaneHead=0;swimlaneBody=0;fillColor=none;collapsible=0;dropTarget=0;points=[[0,0.5],[1,0.5]];portConstraint=eastwest;top=0;left=0;right=0;bottom=0;" parent="jOBW6AXI4wweXSDxxBhk-14" vertex="1">
          <mxGeometry y="65" width="211" height="38" as="geometry" />
        </mxCell>
        <mxCell id="jOBW6AXI4wweXSDxxBhk-19" value="" style="shape=partialRectangle;connectable=0;fillColor=none;top=0;left=0;bottom=0;right=0;editable=1;overflow=hidden;whiteSpace=wrap;html=1;" parent="jOBW6AXI4wweXSDxxBhk-18" vertex="1">
          <mxGeometry width="41.75" height="38" as="geometry">
            <mxRectangle width="41.75" height="38" as="alternateBounds" />
          </mxGeometry>
        </mxCell>
        <mxCell id="jOBW6AXI4wweXSDxxBhk-20" value="&lt;span style=&quot;color: rgba(0, 0, 0, 0.87); font-family: system-ui, -apple-system, blinkmacsystemfont, &amp;quot;Segoe UI&amp;quot;, helvetica, arial, sans-serif, &amp;quot;Apple Color Emoji&amp;quot;, &amp;quot;Segoe UI Emoji&amp;quot;, &amp;quot;Segoe UI Symbol&amp;quot;; font-size: 13px; font-weight: 700; text-align: right;&quot;&gt;tpep_pickup_datetime&lt;/span&gt;" style="shape=partialRectangle;connectable=0;fillColor=none;top=0;left=0;bottom=0;right=0;align=left;spacingLeft=6;overflow=hidden;whiteSpace=wrap;html=1;" parent="jOBW6AXI4wweXSDxxBhk-18" vertex="1">
          <mxGeometry x="41.75" width="169.25" height="38" as="geometry">
            <mxRectangle width="169.25" height="38" as="alternateBounds" />
          </mxGeometry>
        </mxCell>
        <mxCell id="jOBW6AXI4wweXSDxxBhk-24" value="" style="shape=tableRow;horizontal=0;startSize=0;swimlaneHead=0;swimlaneBody=0;fillColor=none;collapsible=0;dropTarget=0;points=[[0,0.5],[1,0.5]];portConstraint=eastwest;top=0;left=0;right=0;bottom=0;" parent="jOBW6AXI4wweXSDxxBhk-14" vertex="1">
          <mxGeometry y="103" width="211" height="26" as="geometry" />
        </mxCell>
        <mxCell id="jOBW6AXI4wweXSDxxBhk-25" value="" style="shape=partialRectangle;connectable=0;fillColor=none;top=0;left=0;bottom=0;right=0;editable=1;overflow=hidden;whiteSpace=wrap;html=1;" parent="jOBW6AXI4wweXSDxxBhk-24" vertex="1">
          <mxGeometry width="41.75" height="26" as="geometry">
            <mxRectangle width="41.75" height="26" as="alternateBounds" />
          </mxGeometry>
        </mxCell>
        <mxCell id="jOBW6AXI4wweXSDxxBhk-26" value="pickup_hour" style="shape=partialRectangle;connectable=0;fillColor=none;top=0;left=0;bottom=0;right=0;align=left;spacingLeft=6;overflow=hidden;whiteSpace=wrap;html=1;" parent="jOBW6AXI4wweXSDxxBhk-24" vertex="1">
          <mxGeometry x="41.75" width="169.25" height="26" as="geometry">
            <mxRectangle width="169.25" height="26" as="alternateBounds" />
          </mxGeometry>
        </mxCell>
        <mxCell id="jOBW6AXI4wweXSDxxBhk-39" value="" style="shape=tableRow;horizontal=0;startSize=0;swimlaneHead=0;swimlaneBody=0;fillColor=none;collapsible=0;dropTarget=0;points=[[0,0.5],[1,0.5]];portConstraint=eastwest;top=0;left=0;right=0;bottom=0;" parent="jOBW6AXI4wweXSDxxBhk-14" vertex="1">
          <mxGeometry y="129" width="211" height="30" as="geometry" />
        </mxCell>
        <mxCell id="jOBW6AXI4wweXSDxxBhk-40" value="" style="shape=partialRectangle;connectable=0;fillColor=none;top=0;left=0;bottom=0;right=0;editable=1;overflow=hidden;" parent="jOBW6AXI4wweXSDxxBhk-39" vertex="1">
          <mxGeometry width="41.75" height="30" as="geometry">
            <mxRectangle width="41.75" height="30" as="alternateBounds" />
          </mxGeometry>
        </mxCell>
        <mxCell id="jOBW6AXI4wweXSDxxBhk-41" value="pick_day" style="shape=partialRectangle;connectable=0;fillColor=none;top=0;left=0;bottom=0;right=0;align=left;spacingLeft=6;overflow=hidden;" parent="jOBW6AXI4wweXSDxxBhk-39" vertex="1">
          <mxGeometry x="41.75" width="169.25" height="30" as="geometry">
            <mxRectangle width="169.25" height="30" as="alternateBounds" />
          </mxGeometry>
        </mxCell>
        <mxCell id="jOBW6AXI4wweXSDxxBhk-42" value="" style="shape=tableRow;horizontal=0;startSize=0;swimlaneHead=0;swimlaneBody=0;fillColor=none;collapsible=0;dropTarget=0;points=[[0,0.5],[1,0.5]];portConstraint=eastwest;top=0;left=0;right=0;bottom=0;" parent="jOBW6AXI4wweXSDxxBhk-14" vertex="1">
          <mxGeometry y="159" width="211" height="30" as="geometry" />
        </mxCell>
        <mxCell id="jOBW6AXI4wweXSDxxBhk-43" value="" style="shape=partialRectangle;connectable=0;fillColor=none;top=0;left=0;bottom=0;right=0;editable=1;overflow=hidden;" parent="jOBW6AXI4wweXSDxxBhk-42" vertex="1">
          <mxGeometry width="41.75" height="30" as="geometry">
            <mxRectangle width="41.75" height="30" as="alternateBounds" />
          </mxGeometry>
        </mxCell>
        <mxCell id="jOBW6AXI4wweXSDxxBhk-44" value="pick_month" style="shape=partialRectangle;connectable=0;fillColor=none;top=0;left=0;bottom=0;right=0;align=left;spacingLeft=6;overflow=hidden;" parent="jOBW6AXI4wweXSDxxBhk-42" vertex="1">
          <mxGeometry x="41.75" width="169.25" height="30" as="geometry">
            <mxRectangle width="169.25" height="30" as="alternateBounds" />
          </mxGeometry>
        </mxCell>
        <mxCell id="jOBW6AXI4wweXSDxxBhk-45" value="" style="shape=tableRow;horizontal=0;startSize=0;swimlaneHead=0;swimlaneBody=0;fillColor=none;collapsible=0;dropTarget=0;points=[[0,0.5],[1,0.5]];portConstraint=eastwest;top=0;left=0;right=0;bottom=0;" parent="jOBW6AXI4wweXSDxxBhk-14" vertex="1">
          <mxGeometry y="189" width="211" height="30" as="geometry" />
        </mxCell>
        <mxCell id="jOBW6AXI4wweXSDxxBhk-46" value="" style="shape=partialRectangle;connectable=0;fillColor=none;top=0;left=0;bottom=0;right=0;editable=1;overflow=hidden;" parent="jOBW6AXI4wweXSDxxBhk-45" vertex="1">
          <mxGeometry width="41.75" height="30" as="geometry">
            <mxRectangle width="41.75" height="30" as="alternateBounds" />
          </mxGeometry>
        </mxCell>
        <mxCell id="jOBW6AXI4wweXSDxxBhk-47" value="pick_year" style="shape=partialRectangle;connectable=0;fillColor=none;top=0;left=0;bottom=0;right=0;align=left;spacingLeft=6;overflow=hidden;" parent="jOBW6AXI4wweXSDxxBhk-45" vertex="1">
          <mxGeometry x="41.75" width="169.25" height="30" as="geometry">
            <mxRectangle width="169.25" height="30" as="alternateBounds" />
          </mxGeometry>
        </mxCell>
        <mxCell id="jOBW6AXI4wweXSDxxBhk-48" value="" style="shape=tableRow;horizontal=0;startSize=0;swimlaneHead=0;swimlaneBody=0;fillColor=none;collapsible=0;dropTarget=0;points=[[0,0.5],[1,0.5]];portConstraint=eastwest;top=0;left=0;right=0;bottom=0;" parent="jOBW6AXI4wweXSDxxBhk-14" vertex="1">
          <mxGeometry y="219" width="211" height="30" as="geometry" />
        </mxCell>
        <mxCell id="jOBW6AXI4wweXSDxxBhk-49" value="" style="shape=partialRectangle;connectable=0;fillColor=none;top=0;left=0;bottom=0;right=0;editable=1;overflow=hidden;" parent="jOBW6AXI4wweXSDxxBhk-48" vertex="1">
          <mxGeometry width="41.75" height="30" as="geometry">
            <mxRectangle width="41.75" height="30" as="alternateBounds" />
          </mxGeometry>
        </mxCell>
        <mxCell id="jOBW6AXI4wweXSDxxBhk-50" value="pick_weekday" style="shape=partialRectangle;connectable=0;fillColor=none;top=0;left=0;bottom=0;right=0;align=left;spacingLeft=6;overflow=hidden;" parent="jOBW6AXI4wweXSDxxBhk-48" vertex="1">
          <mxGeometry x="41.75" width="169.25" height="30" as="geometry">
            <mxRectangle width="169.25" height="30" as="alternateBounds" />
          </mxGeometry>
        </mxCell>
        <mxCell id="jOBW6AXI4wweXSDxxBhk-21" value="" style="shape=tableRow;horizontal=0;startSize=0;swimlaneHead=0;swimlaneBody=0;fillColor=none;collapsible=0;dropTarget=0;points=[[0,0.5],[1,0.5]];portConstraint=eastwest;top=0;left=0;right=0;bottom=0;" parent="jOBW6AXI4wweXSDxxBhk-14" vertex="1">
          <mxGeometry y="249" width="211" height="35" as="geometry" />
        </mxCell>
        <mxCell id="jOBW6AXI4wweXSDxxBhk-22" value="" style="shape=partialRectangle;connectable=0;fillColor=none;top=0;left=0;bottom=0;right=0;editable=1;overflow=hidden;whiteSpace=wrap;html=1;" parent="jOBW6AXI4wweXSDxxBhk-21" vertex="1">
          <mxGeometry width="41.75" height="35" as="geometry">
            <mxRectangle width="41.75" height="35" as="alternateBounds" />
          </mxGeometry>
        </mxCell>
        <mxCell id="jOBW6AXI4wweXSDxxBhk-23" value="&lt;span style=&quot;color: rgba(0, 0, 0, 0.87); font-family: system-ui, -apple-system, blinkmacsystemfont, &amp;quot;Segoe UI&amp;quot;, helvetica, arial, sans-serif, &amp;quot;Apple Color Emoji&amp;quot;, &amp;quot;Segoe UI Emoji&amp;quot;, &amp;quot;Segoe UI Symbol&amp;quot;; font-size: 13px; font-weight: 700; text-align: right;&quot;&gt;tpep_dropoff_datetime&lt;/span&gt;" style="shape=partialRectangle;connectable=0;fillColor=none;top=0;left=0;bottom=0;right=0;align=left;spacingLeft=6;overflow=hidden;whiteSpace=wrap;html=1;" parent="jOBW6AXI4wweXSDxxBhk-21" vertex="1">
          <mxGeometry x="41.75" width="169.25" height="35" as="geometry">
            <mxRectangle width="169.25" height="35" as="alternateBounds" />
          </mxGeometry>
        </mxCell>
        <mxCell id="jOBW6AXI4wweXSDxxBhk-51" value="" style="shape=tableRow;horizontal=0;startSize=0;swimlaneHead=0;swimlaneBody=0;fillColor=none;collapsible=0;dropTarget=0;points=[[0,0.5],[1,0.5]];portConstraint=eastwest;top=0;left=0;right=0;bottom=0;" parent="jOBW6AXI4wweXSDxxBhk-14" vertex="1">
          <mxGeometry y="284" width="211" height="30" as="geometry" />
        </mxCell>
        <mxCell id="jOBW6AXI4wweXSDxxBhk-52" value="" style="shape=partialRectangle;connectable=0;fillColor=none;top=0;left=0;bottom=0;right=0;editable=1;overflow=hidden;" parent="jOBW6AXI4wweXSDxxBhk-51" vertex="1">
          <mxGeometry width="41.75" height="30" as="geometry">
            <mxRectangle width="41.75" height="30" as="alternateBounds" />
          </mxGeometry>
        </mxCell>
        <mxCell id="jOBW6AXI4wweXSDxxBhk-53" value="drop_hour" style="shape=partialRectangle;connectable=0;fillColor=none;top=0;left=0;bottom=0;right=0;align=left;spacingLeft=6;overflow=hidden;" parent="jOBW6AXI4wweXSDxxBhk-51" vertex="1">
          <mxGeometry x="41.75" width="169.25" height="30" as="geometry">
            <mxRectangle width="169.25" height="30" as="alternateBounds" />
          </mxGeometry>
        </mxCell>
        <mxCell id="jOBW6AXI4wweXSDxxBhk-57" value="" style="shape=tableRow;horizontal=0;startSize=0;swimlaneHead=0;swimlaneBody=0;fillColor=none;collapsible=0;dropTarget=0;points=[[0,0.5],[1,0.5]];portConstraint=eastwest;top=0;left=0;right=0;bottom=0;" parent="jOBW6AXI4wweXSDxxBhk-14" vertex="1">
          <mxGeometry y="314" width="211" height="30" as="geometry" />
        </mxCell>
        <mxCell id="jOBW6AXI4wweXSDxxBhk-58" value="" style="shape=partialRectangle;connectable=0;fillColor=none;top=0;left=0;bottom=0;right=0;editable=1;overflow=hidden;" parent="jOBW6AXI4wweXSDxxBhk-57" vertex="1">
          <mxGeometry width="41.75" height="30" as="geometry">
            <mxRectangle width="41.75" height="30" as="alternateBounds" />
          </mxGeometry>
        </mxCell>
        <mxCell id="jOBW6AXI4wweXSDxxBhk-59" value="drop_day" style="shape=partialRectangle;connectable=0;fillColor=none;top=0;left=0;bottom=0;right=0;align=left;spacingLeft=6;overflow=hidden;" parent="jOBW6AXI4wweXSDxxBhk-57" vertex="1">
          <mxGeometry x="41.75" width="169.25" height="30" as="geometry">
            <mxRectangle width="169.25" height="30" as="alternateBounds" />
          </mxGeometry>
        </mxCell>
        <mxCell id="jOBW6AXI4wweXSDxxBhk-60" value="" style="shape=tableRow;horizontal=0;startSize=0;swimlaneHead=0;swimlaneBody=0;fillColor=none;collapsible=0;dropTarget=0;points=[[0,0.5],[1,0.5]];portConstraint=eastwest;top=0;left=0;right=0;bottom=0;" parent="jOBW6AXI4wweXSDxxBhk-14" vertex="1">
          <mxGeometry y="344" width="211" height="30" as="geometry" />
        </mxCell>
        <mxCell id="jOBW6AXI4wweXSDxxBhk-61" value="" style="shape=partialRectangle;connectable=0;fillColor=none;top=0;left=0;bottom=0;right=0;editable=1;overflow=hidden;" parent="jOBW6AXI4wweXSDxxBhk-60" vertex="1">
          <mxGeometry width="41.75" height="30" as="geometry">
            <mxRectangle width="41.75" height="30" as="alternateBounds" />
          </mxGeometry>
        </mxCell>
        <mxCell id="jOBW6AXI4wweXSDxxBhk-62" value="drop_month" style="shape=partialRectangle;connectable=0;fillColor=none;top=0;left=0;bottom=0;right=0;align=left;spacingLeft=6;overflow=hidden;" parent="jOBW6AXI4wweXSDxxBhk-60" vertex="1">
          <mxGeometry x="41.75" width="169.25" height="30" as="geometry">
            <mxRectangle width="169.25" height="30" as="alternateBounds" />
          </mxGeometry>
        </mxCell>
        <mxCell id="jOBW6AXI4wweXSDxxBhk-63" value="" style="shape=tableRow;horizontal=0;startSize=0;swimlaneHead=0;swimlaneBody=0;fillColor=none;collapsible=0;dropTarget=0;points=[[0,0.5],[1,0.5]];portConstraint=eastwest;top=0;left=0;right=0;bottom=0;" parent="jOBW6AXI4wweXSDxxBhk-14" vertex="1">
          <mxGeometry y="374" width="211" height="30" as="geometry" />
        </mxCell>
        <mxCell id="jOBW6AXI4wweXSDxxBhk-64" value="" style="shape=partialRectangle;connectable=0;fillColor=none;top=0;left=0;bottom=0;right=0;editable=1;overflow=hidden;" parent="jOBW6AXI4wweXSDxxBhk-63" vertex="1">
          <mxGeometry width="41.75" height="30" as="geometry">
            <mxRectangle width="41.75" height="30" as="alternateBounds" />
          </mxGeometry>
        </mxCell>
        <mxCell id="jOBW6AXI4wweXSDxxBhk-65" value="drop_year" style="shape=partialRectangle;connectable=0;fillColor=none;top=0;left=0;bottom=0;right=0;align=left;spacingLeft=6;overflow=hidden;" parent="jOBW6AXI4wweXSDxxBhk-63" vertex="1">
          <mxGeometry x="41.75" width="169.25" height="30" as="geometry">
            <mxRectangle width="169.25" height="30" as="alternateBounds" />
          </mxGeometry>
        </mxCell>
        <mxCell id="jOBW6AXI4wweXSDxxBhk-54" value="" style="shape=tableRow;horizontal=0;startSize=0;swimlaneHead=0;swimlaneBody=0;fillColor=none;collapsible=0;dropTarget=0;points=[[0,0.5],[1,0.5]];portConstraint=eastwest;top=0;left=0;right=0;bottom=0;" parent="jOBW6AXI4wweXSDxxBhk-14" vertex="1">
          <mxGeometry y="404" width="211" height="30" as="geometry" />
        </mxCell>
        <mxCell id="jOBW6AXI4wweXSDxxBhk-55" value="" style="shape=partialRectangle;connectable=0;fillColor=none;top=0;left=0;bottom=0;right=0;editable=1;overflow=hidden;" parent="jOBW6AXI4wweXSDxxBhk-54" vertex="1">
          <mxGeometry width="41.75" height="30" as="geometry">
            <mxRectangle width="41.75" height="30" as="alternateBounds" />
          </mxGeometry>
        </mxCell>
        <mxCell id="jOBW6AXI4wweXSDxxBhk-56" value="drop_weekday" style="shape=partialRectangle;connectable=0;fillColor=none;top=0;left=0;bottom=0;right=0;align=left;spacingLeft=6;overflow=hidden;" parent="jOBW6AXI4wweXSDxxBhk-54" vertex="1">
          <mxGeometry x="41.75" width="169.25" height="30" as="geometry">
            <mxRectangle width="169.25" height="30" as="alternateBounds" />
          </mxGeometry>
        </mxCell>
        <mxCell id="jOBW6AXI4wweXSDxxBhk-75" value="passenger_count_dim" style="shape=table;startSize=30;container=1;collapsible=1;childLayout=tableLayout;fixedRows=1;rowLines=0;fontStyle=1;align=center;resizeLast=1;html=1;" parent="1" vertex="1">
          <mxGeometry x="-93" y="-983" width="180" height="90" as="geometry" />
        </mxCell>
        <mxCell id="jOBW6AXI4wweXSDxxBhk-76" value="" style="shape=tableRow;horizontal=0;startSize=0;swimlaneHead=0;swimlaneBody=0;fillColor=none;collapsible=0;dropTarget=0;points=[[0,0.5],[1,0.5]];portConstraint=eastwest;top=0;left=0;right=0;bottom=1;" parent="jOBW6AXI4wweXSDxxBhk-75" vertex="1">
          <mxGeometry y="30" width="180" height="30" as="geometry" />
        </mxCell>
        <mxCell id="jOBW6AXI4wweXSDxxBhk-77" value="PK" style="shape=partialRectangle;connectable=0;fillColor=none;top=0;left=0;bottom=0;right=0;fontStyle=1;overflow=hidden;whiteSpace=wrap;html=1;" parent="jOBW6AXI4wweXSDxxBhk-76" vertex="1">
          <mxGeometry width="30" height="30" as="geometry">
            <mxRectangle width="30" height="30" as="alternateBounds" />
          </mxGeometry>
        </mxCell>
        <mxCell id="jOBW6AXI4wweXSDxxBhk-78" value="passenger_count_id" style="shape=partialRectangle;connectable=0;fillColor=none;top=0;left=0;bottom=0;right=0;align=left;spacingLeft=6;fontStyle=5;overflow=hidden;whiteSpace=wrap;html=1;" parent="jOBW6AXI4wweXSDxxBhk-76" vertex="1">
          <mxGeometry x="30" width="150" height="30" as="geometry">
            <mxRectangle width="150" height="30" as="alternateBounds" />
          </mxGeometry>
        </mxCell>
        <mxCell id="jOBW6AXI4wweXSDxxBhk-79" value="" style="shape=tableRow;horizontal=0;startSize=0;swimlaneHead=0;swimlaneBody=0;fillColor=none;collapsible=0;dropTarget=0;points=[[0,0.5],[1,0.5]];portConstraint=eastwest;top=0;left=0;right=0;bottom=0;" parent="jOBW6AXI4wweXSDxxBhk-75" vertex="1">
          <mxGeometry y="60" width="180" height="30" as="geometry" />
        </mxCell>
        <mxCell id="jOBW6AXI4wweXSDxxBhk-80" value="" style="shape=partialRectangle;connectable=0;fillColor=none;top=0;left=0;bottom=0;right=0;editable=1;overflow=hidden;whiteSpace=wrap;html=1;" parent="jOBW6AXI4wweXSDxxBhk-79" vertex="1">
          <mxGeometry width="30" height="30" as="geometry">
            <mxRectangle width="30" height="30" as="alternateBounds" />
          </mxGeometry>
        </mxCell>
        <mxCell id="jOBW6AXI4wweXSDxxBhk-81" value="passenger_count" style="shape=partialRectangle;connectable=0;fillColor=none;top=0;left=0;bottom=0;right=0;align=left;spacingLeft=6;overflow=hidden;whiteSpace=wrap;html=1;" parent="jOBW6AXI4wweXSDxxBhk-79" vertex="1">
          <mxGeometry x="30" width="150" height="30" as="geometry">
            <mxRectangle width="150" height="30" as="alternateBounds" />
          </mxGeometry>
        </mxCell>
        <mxCell id="jOBW6AXI4wweXSDxxBhk-93" value="" style="edgeStyle=entityRelationEdgeStyle;fontSize=12;html=1;endArrow=ERoneToMany;rounded=0;startSize=8;endSize=8;curved=1;entryX=0;entryY=0.5;entryDx=0;entryDy=0;" parent="1" source="jOBW6AXI4wweXSDxxBhk-72" target="jOBW6AXI4wweXSDxxBhk-15" edge="1">
          <mxGeometry width="100" height="100" relative="1" as="geometry">
            <mxPoint x="231" y="-412" as="sourcePoint" />
            <mxPoint x="331" y="-512" as="targetPoint" />
          </mxGeometry>
        </mxCell>
        <mxCell id="jOBW6AXI4wweXSDxxBhk-94" value="" style="edgeStyle=entityRelationEdgeStyle;fontSize=12;html=1;endArrow=ERoneToMany;rounded=0;startSize=8;endSize=8;curved=1;entryX=1;entryY=0.5;entryDx=0;entryDy=0;exitX=0;exitY=0.5;exitDx=0;exitDy=0;" parent="1" source="jOBW6AXI4wweXSDxxBhk-88" target="jOBW6AXI4wweXSDxxBhk-76" edge="1">
          <mxGeometry width="100" height="100" relative="1" as="geometry">
            <mxPoint x="-4" y="-453" as="sourcePoint" />
            <mxPoint x="96" y="-553" as="targetPoint" />
          </mxGeometry>
        </mxCell>
        <mxCell id="jOBW6AXI4wweXSDxxBhk-95" value="trip_distance_dim" style="shape=table;startSize=30;container=1;collapsible=1;childLayout=tableLayout;fixedRows=1;rowLines=0;fontStyle=1;align=center;resizeLast=1;html=1;" parent="1" vertex="1">
          <mxGeometry x="-93" y="-859" width="180" height="90" as="geometry" />
        </mxCell>
        <mxCell id="jOBW6AXI4wweXSDxxBhk-96" value="" style="shape=tableRow;horizontal=0;startSize=0;swimlaneHead=0;swimlaneBody=0;fillColor=none;collapsible=0;dropTarget=0;points=[[0,0.5],[1,0.5]];portConstraint=eastwest;top=0;left=0;right=0;bottom=1;" parent="jOBW6AXI4wweXSDxxBhk-95" vertex="1">
          <mxGeometry y="30" width="180" height="30" as="geometry" />
        </mxCell>
        <mxCell id="jOBW6AXI4wweXSDxxBhk-97" value="PK" style="shape=partialRectangle;connectable=0;fillColor=none;top=0;left=0;bottom=0;right=0;fontStyle=1;overflow=hidden;whiteSpace=wrap;html=1;" parent="jOBW6AXI4wweXSDxxBhk-96" vertex="1">
          <mxGeometry width="30" height="30" as="geometry">
            <mxRectangle width="30" height="30" as="alternateBounds" />
          </mxGeometry>
        </mxCell>
        <mxCell id="jOBW6AXI4wweXSDxxBhk-98" value="trip_distance_id" style="shape=partialRectangle;connectable=0;fillColor=none;top=0;left=0;bottom=0;right=0;align=left;spacingLeft=6;fontStyle=5;overflow=hidden;whiteSpace=wrap;html=1;" parent="jOBW6AXI4wweXSDxxBhk-96" vertex="1">
          <mxGeometry x="30" width="150" height="30" as="geometry">
            <mxRectangle width="150" height="30" as="alternateBounds" />
          </mxGeometry>
        </mxCell>
        <mxCell id="jOBW6AXI4wweXSDxxBhk-99" value="" style="shape=tableRow;horizontal=0;startSize=0;swimlaneHead=0;swimlaneBody=0;fillColor=none;collapsible=0;dropTarget=0;points=[[0,0.5],[1,0.5]];portConstraint=eastwest;top=0;left=0;right=0;bottom=0;" parent="jOBW6AXI4wweXSDxxBhk-95" vertex="1">
          <mxGeometry y="60" width="180" height="30" as="geometry" />
        </mxCell>
        <mxCell id="jOBW6AXI4wweXSDxxBhk-100" value="" style="shape=partialRectangle;connectable=0;fillColor=none;top=0;left=0;bottom=0;right=0;editable=1;overflow=hidden;whiteSpace=wrap;html=1;" parent="jOBW6AXI4wweXSDxxBhk-99" vertex="1">
          <mxGeometry width="30" height="30" as="geometry">
            <mxRectangle width="30" height="30" as="alternateBounds" />
          </mxGeometry>
        </mxCell>
        <mxCell id="jOBW6AXI4wweXSDxxBhk-101" value="trip_distance" style="shape=partialRectangle;connectable=0;fillColor=none;top=0;left=0;bottom=0;right=0;align=left;spacingLeft=6;overflow=hidden;whiteSpace=wrap;html=1;" parent="jOBW6AXI4wweXSDxxBhk-99" vertex="1">
          <mxGeometry x="30" width="150" height="30" as="geometry">
            <mxRectangle width="150" height="30" as="alternateBounds" />
          </mxGeometry>
        </mxCell>
        <mxCell id="jOBW6AXI4wweXSDxxBhk-111" value="" style="edgeStyle=entityRelationEdgeStyle;fontSize=12;html=1;endArrow=ERoneToMany;rounded=0;startSize=8;endSize=8;curved=1;entryX=0;entryY=0.5;entryDx=0;entryDy=0;exitX=1;exitY=0.5;exitDx=0;exitDy=0;" parent="1" source="jOBW6AXI4wweXSDxxBhk-96" target="jOBW6AXI4wweXSDxxBhk-108" edge="1">
          <mxGeometry width="100" height="100" relative="1" as="geometry">
            <mxPoint x="129" y="-473" as="sourcePoint" />
            <mxPoint x="229" y="-573" as="targetPoint" />
          </mxGeometry>
        </mxCell>
        <mxCell id="O07wSK2jEk8nUm2FwIZC-1" value="pickup_location_dim" style="shape=table;startSize=33;container=1;collapsible=1;childLayout=tableLayout;fixedRows=1;rowLines=0;fontStyle=1;align=center;resizeLast=1;html=1;" vertex="1" parent="1">
          <mxGeometry x="442" y="-514" width="213" height="125" as="geometry" />
        </mxCell>
        <mxCell id="O07wSK2jEk8nUm2FwIZC-2" value="" style="shape=tableRow;horizontal=0;startSize=0;swimlaneHead=0;swimlaneBody=0;fillColor=none;collapsible=0;dropTarget=0;points=[[0,0.5],[1,0.5]];portConstraint=eastwest;top=0;left=0;right=0;bottom=1;" vertex="1" parent="O07wSK2jEk8nUm2FwIZC-1">
          <mxGeometry y="33" width="213" height="30" as="geometry" />
        </mxCell>
        <mxCell id="O07wSK2jEk8nUm2FwIZC-3" value="PK" style="shape=partialRectangle;connectable=0;fillColor=none;top=0;left=0;bottom=0;right=0;fontStyle=1;overflow=hidden;whiteSpace=wrap;html=1;" vertex="1" parent="O07wSK2jEk8nUm2FwIZC-2">
          <mxGeometry width="29.75" height="30" as="geometry">
            <mxRectangle width="29.75" height="30" as="alternateBounds" />
          </mxGeometry>
        </mxCell>
        <mxCell id="O07wSK2jEk8nUm2FwIZC-4" value="pickup_location_id" style="shape=partialRectangle;connectable=0;fillColor=none;top=0;left=0;bottom=0;right=0;align=left;spacingLeft=6;fontStyle=5;overflow=hidden;whiteSpace=wrap;html=1;" vertex="1" parent="O07wSK2jEk8nUm2FwIZC-2">
          <mxGeometry x="29.75" width="183.25" height="30" as="geometry">
            <mxRectangle width="183.25" height="30" as="alternateBounds" />
          </mxGeometry>
        </mxCell>
        <mxCell id="O07wSK2jEk8nUm2FwIZC-5" value="" style="shape=tableRow;horizontal=0;startSize=0;swimlaneHead=0;swimlaneBody=0;fillColor=none;collapsible=0;dropTarget=0;points=[[0,0.5],[1,0.5]];portConstraint=eastwest;top=0;left=0;right=0;bottom=0;" vertex="1" parent="O07wSK2jEk8nUm2FwIZC-1">
          <mxGeometry y="63" width="213" height="28" as="geometry" />
        </mxCell>
        <mxCell id="O07wSK2jEk8nUm2FwIZC-6" value="" style="shape=partialRectangle;connectable=0;fillColor=none;top=0;left=0;bottom=0;right=0;editable=1;overflow=hidden;whiteSpace=wrap;html=1;" vertex="1" parent="O07wSK2jEk8nUm2FwIZC-5">
          <mxGeometry width="29.75" height="28" as="geometry">
            <mxRectangle width="29.75" height="28" as="alternateBounds" />
          </mxGeometry>
        </mxCell>
        <mxCell id="O07wSK2jEk8nUm2FwIZC-7" value="pickup_latitude&lt;span style=&quot;white-space: pre;&quot;&gt;&#x9;&lt;/span&gt;" style="shape=partialRectangle;connectable=0;fillColor=none;top=0;left=0;bottom=0;right=0;align=left;spacingLeft=6;overflow=hidden;whiteSpace=wrap;html=1;" vertex="1" parent="O07wSK2jEk8nUm2FwIZC-5">
          <mxGeometry x="29.75" width="183.25" height="28" as="geometry">
            <mxRectangle width="183.25" height="28" as="alternateBounds" />
          </mxGeometry>
        </mxCell>
        <mxCell id="O07wSK2jEk8nUm2FwIZC-8" value="" style="shape=tableRow;horizontal=0;startSize=0;swimlaneHead=0;swimlaneBody=0;fillColor=none;collapsible=0;dropTarget=0;points=[[0,0.5],[1,0.5]];portConstraint=eastwest;top=0;left=0;right=0;bottom=0;" vertex="1" parent="O07wSK2jEk8nUm2FwIZC-1">
          <mxGeometry y="91" width="213" height="30" as="geometry" />
        </mxCell>
        <mxCell id="O07wSK2jEk8nUm2FwIZC-9" value="" style="shape=partialRectangle;connectable=0;fillColor=none;top=0;left=0;bottom=0;right=0;editable=1;overflow=hidden;whiteSpace=wrap;html=1;" vertex="1" parent="O07wSK2jEk8nUm2FwIZC-8">
          <mxGeometry width="29.75" height="30" as="geometry">
            <mxRectangle width="29.75" height="30" as="alternateBounds" />
          </mxGeometry>
        </mxCell>
        <mxCell id="O07wSK2jEk8nUm2FwIZC-10" value="pickup_longitude" style="shape=partialRectangle;connectable=0;fillColor=none;top=0;left=0;bottom=0;right=0;align=left;spacingLeft=6;overflow=hidden;whiteSpace=wrap;html=1;" vertex="1" parent="O07wSK2jEk8nUm2FwIZC-8">
          <mxGeometry x="29.75" width="183.25" height="30" as="geometry">
            <mxRectangle width="183.25" height="30" as="alternateBounds" />
          </mxGeometry>
        </mxCell>
        <mxCell id="O07wSK2jEk8nUm2FwIZC-20" value="" style="edgeStyle=entityRelationEdgeStyle;fontSize=12;html=1;endArrow=ERoneToMany;rounded=0;startSize=8;endSize=8;curved=1;exitX=0;exitY=0.5;exitDx=0;exitDy=0;entryX=1;entryY=0.5;entryDx=0;entryDy=0;" edge="1" parent="1" source="O07wSK2jEk8nUm2FwIZC-2" target="O07wSK2jEk8nUm2FwIZC-17">
          <mxGeometry width="100" height="100" relative="1" as="geometry">
            <mxPoint x="265" y="-419" as="sourcePoint" />
            <mxPoint x="365" y="-519" as="targetPoint" />
          </mxGeometry>
        </mxCell>
        <mxCell id="O07wSK2jEk8nUm2FwIZC-21" value="drop_location_dim" style="shape=table;startSize=33;container=1;collapsible=1;childLayout=tableLayout;fixedRows=1;rowLines=0;fontStyle=1;align=center;resizeLast=1;html=1;" vertex="1" parent="1">
          <mxGeometry x="442" y="-362" width="213" height="125" as="geometry" />
        </mxCell>
        <mxCell id="O07wSK2jEk8nUm2FwIZC-22" value="" style="shape=tableRow;horizontal=0;startSize=0;swimlaneHead=0;swimlaneBody=0;fillColor=none;collapsible=0;dropTarget=0;points=[[0,0.5],[1,0.5]];portConstraint=eastwest;top=0;left=0;right=0;bottom=1;" vertex="1" parent="O07wSK2jEk8nUm2FwIZC-21">
          <mxGeometry y="33" width="213" height="30" as="geometry" />
        </mxCell>
        <mxCell id="O07wSK2jEk8nUm2FwIZC-23" value="PK" style="shape=partialRectangle;connectable=0;fillColor=none;top=0;left=0;bottom=0;right=0;fontStyle=1;overflow=hidden;whiteSpace=wrap;html=1;" vertex="1" parent="O07wSK2jEk8nUm2FwIZC-22">
          <mxGeometry width="29.75" height="30" as="geometry">
            <mxRectangle width="29.75" height="30" as="alternateBounds" />
          </mxGeometry>
        </mxCell>
        <mxCell id="O07wSK2jEk8nUm2FwIZC-24" value="drop_location_id" style="shape=partialRectangle;connectable=0;fillColor=none;top=0;left=0;bottom=0;right=0;align=left;spacingLeft=6;fontStyle=5;overflow=hidden;whiteSpace=wrap;html=1;" vertex="1" parent="O07wSK2jEk8nUm2FwIZC-22">
          <mxGeometry x="29.75" width="183.25" height="30" as="geometry">
            <mxRectangle width="183.25" height="30" as="alternateBounds" />
          </mxGeometry>
        </mxCell>
        <mxCell id="O07wSK2jEk8nUm2FwIZC-25" value="" style="shape=tableRow;horizontal=0;startSize=0;swimlaneHead=0;swimlaneBody=0;fillColor=none;collapsible=0;dropTarget=0;points=[[0,0.5],[1,0.5]];portConstraint=eastwest;top=0;left=0;right=0;bottom=0;" vertex="1" parent="O07wSK2jEk8nUm2FwIZC-21">
          <mxGeometry y="63" width="213" height="28" as="geometry" />
        </mxCell>
        <mxCell id="O07wSK2jEk8nUm2FwIZC-26" value="" style="shape=partialRectangle;connectable=0;fillColor=none;top=0;left=0;bottom=0;right=0;editable=1;overflow=hidden;whiteSpace=wrap;html=1;" vertex="1" parent="O07wSK2jEk8nUm2FwIZC-25">
          <mxGeometry width="29.75" height="28" as="geometry">
            <mxRectangle width="29.75" height="28" as="alternateBounds" />
          </mxGeometry>
        </mxCell>
        <mxCell id="O07wSK2jEk8nUm2FwIZC-27" value="drop_latitude&lt;span style=&quot;white-space: pre;&quot;&gt;&#x9;&lt;/span&gt;" style="shape=partialRectangle;connectable=0;fillColor=none;top=0;left=0;bottom=0;right=0;align=left;spacingLeft=6;overflow=hidden;whiteSpace=wrap;html=1;" vertex="1" parent="O07wSK2jEk8nUm2FwIZC-25">
          <mxGeometry x="29.75" width="183.25" height="28" as="geometry">
            <mxRectangle width="183.25" height="28" as="alternateBounds" />
          </mxGeometry>
        </mxCell>
        <mxCell id="O07wSK2jEk8nUm2FwIZC-28" value="" style="shape=tableRow;horizontal=0;startSize=0;swimlaneHead=0;swimlaneBody=0;fillColor=none;collapsible=0;dropTarget=0;points=[[0,0.5],[1,0.5]];portConstraint=eastwest;top=0;left=0;right=0;bottom=0;" vertex="1" parent="O07wSK2jEk8nUm2FwIZC-21">
          <mxGeometry y="91" width="213" height="30" as="geometry" />
        </mxCell>
        <mxCell id="O07wSK2jEk8nUm2FwIZC-29" value="" style="shape=partialRectangle;connectable=0;fillColor=none;top=0;left=0;bottom=0;right=0;editable=1;overflow=hidden;whiteSpace=wrap;html=1;" vertex="1" parent="O07wSK2jEk8nUm2FwIZC-28">
          <mxGeometry width="29.75" height="30" as="geometry">
            <mxRectangle width="29.75" height="30" as="alternateBounds" />
          </mxGeometry>
        </mxCell>
        <mxCell id="O07wSK2jEk8nUm2FwIZC-30" value="drop_longitude" style="shape=partialRectangle;connectable=0;fillColor=none;top=0;left=0;bottom=0;right=0;align=left;spacingLeft=6;overflow=hidden;whiteSpace=wrap;html=1;" vertex="1" parent="O07wSK2jEk8nUm2FwIZC-28">
          <mxGeometry x="29.75" width="183.25" height="30" as="geometry">
            <mxRectangle width="183.25" height="30" as="alternateBounds" />
          </mxGeometry>
        </mxCell>
        <mxCell id="O07wSK2jEk8nUm2FwIZC-34" value="" style="edgeStyle=entityRelationEdgeStyle;fontSize=12;html=1;endArrow=ERoneToMany;rounded=0;startSize=8;endSize=8;curved=1;entryX=1;entryY=0.5;entryDx=0;entryDy=0;exitX=0;exitY=0.5;exitDx=0;exitDy=0;" edge="1" parent="1" source="O07wSK2jEk8nUm2FwIZC-22" target="O07wSK2jEk8nUm2FwIZC-31">
          <mxGeometry width="100" height="100" relative="1" as="geometry">
            <mxPoint x="287" y="-313" as="sourcePoint" />
            <mxPoint x="387" y="-413" as="targetPoint" />
          </mxGeometry>
        </mxCell>
        <mxCell id="O07wSK2jEk8nUm2FwIZC-36" value="rate_code_dim" style="shape=table;startSize=30;container=1;collapsible=1;childLayout=tableLayout;fixedRows=1;rowLines=0;fontStyle=1;align=center;resizeLast=1;html=1;" vertex="1" parent="1">
          <mxGeometry x="-93" y="-740" width="180" height="120" as="geometry" />
        </mxCell>
        <mxCell id="O07wSK2jEk8nUm2FwIZC-37" value="" style="shape=tableRow;horizontal=0;startSize=0;swimlaneHead=0;swimlaneBody=0;fillColor=none;collapsible=0;dropTarget=0;points=[[0,0.5],[1,0.5]];portConstraint=eastwest;top=0;left=0;right=0;bottom=1;" vertex="1" parent="O07wSK2jEk8nUm2FwIZC-36">
          <mxGeometry y="30" width="180" height="30" as="geometry" />
        </mxCell>
        <mxCell id="O07wSK2jEk8nUm2FwIZC-38" value="PK" style="shape=partialRectangle;connectable=0;fillColor=none;top=0;left=0;bottom=0;right=0;fontStyle=1;overflow=hidden;whiteSpace=wrap;html=1;" vertex="1" parent="O07wSK2jEk8nUm2FwIZC-37">
          <mxGeometry width="30" height="30" as="geometry">
            <mxRectangle width="30" height="30" as="alternateBounds" />
          </mxGeometry>
        </mxCell>
        <mxCell id="O07wSK2jEk8nUm2FwIZC-39" value="rate_code_id" style="shape=partialRectangle;connectable=0;fillColor=none;top=0;left=0;bottom=0;right=0;align=left;spacingLeft=6;fontStyle=5;overflow=hidden;whiteSpace=wrap;html=1;" vertex="1" parent="O07wSK2jEk8nUm2FwIZC-37">
          <mxGeometry x="30" width="150" height="30" as="geometry">
            <mxRectangle width="150" height="30" as="alternateBounds" />
          </mxGeometry>
        </mxCell>
        <mxCell id="O07wSK2jEk8nUm2FwIZC-40" value="" style="shape=tableRow;horizontal=0;startSize=0;swimlaneHead=0;swimlaneBody=0;fillColor=none;collapsible=0;dropTarget=0;points=[[0,0.5],[1,0.5]];portConstraint=eastwest;top=0;left=0;right=0;bottom=0;" vertex="1" parent="O07wSK2jEk8nUm2FwIZC-36">
          <mxGeometry y="60" width="180" height="30" as="geometry" />
        </mxCell>
        <mxCell id="O07wSK2jEk8nUm2FwIZC-41" value="" style="shape=partialRectangle;connectable=0;fillColor=none;top=0;left=0;bottom=0;right=0;editable=1;overflow=hidden;whiteSpace=wrap;html=1;" vertex="1" parent="O07wSK2jEk8nUm2FwIZC-40">
          <mxGeometry width="30" height="30" as="geometry">
            <mxRectangle width="30" height="30" as="alternateBounds" />
          </mxGeometry>
        </mxCell>
        <mxCell id="O07wSK2jEk8nUm2FwIZC-42" value="&lt;span style=&quot;color: rgba(0, 0, 0, 0.87); font-family: system-ui, -apple-system, blinkmacsystemfont, &amp;quot;Segoe UI&amp;quot;, helvetica, arial, sans-serif, &amp;quot;Apple Color Emoji&amp;quot;, &amp;quot;Segoe UI Emoji&amp;quot;, &amp;quot;Segoe UI Symbol&amp;quot;; font-size: 13px; font-weight: 700; text-align: right;&quot;&gt;RatecodeID&lt;/span&gt;" style="shape=partialRectangle;connectable=0;fillColor=none;top=0;left=0;bottom=0;right=0;align=left;spacingLeft=6;overflow=hidden;whiteSpace=wrap;html=1;" vertex="1" parent="O07wSK2jEk8nUm2FwIZC-40">
          <mxGeometry x="30" width="150" height="30" as="geometry">
            <mxRectangle width="150" height="30" as="alternateBounds" />
          </mxGeometry>
        </mxCell>
        <mxCell id="O07wSK2jEk8nUm2FwIZC-43" value="" style="shape=tableRow;horizontal=0;startSize=0;swimlaneHead=0;swimlaneBody=0;fillColor=none;collapsible=0;dropTarget=0;points=[[0,0.5],[1,0.5]];portConstraint=eastwest;top=0;left=0;right=0;bottom=0;" vertex="1" parent="O07wSK2jEk8nUm2FwIZC-36">
          <mxGeometry y="90" width="180" height="30" as="geometry" />
        </mxCell>
        <mxCell id="O07wSK2jEk8nUm2FwIZC-44" value="" style="shape=partialRectangle;connectable=0;fillColor=none;top=0;left=0;bottom=0;right=0;editable=1;overflow=hidden;whiteSpace=wrap;html=1;" vertex="1" parent="O07wSK2jEk8nUm2FwIZC-43">
          <mxGeometry width="30" height="30" as="geometry">
            <mxRectangle width="30" height="30" as="alternateBounds" />
          </mxGeometry>
        </mxCell>
        <mxCell id="O07wSK2jEk8nUm2FwIZC-45" value="rate_code_name" style="shape=partialRectangle;connectable=0;fillColor=none;top=0;left=0;bottom=0;right=0;align=left;spacingLeft=6;overflow=hidden;whiteSpace=wrap;html=1;" vertex="1" parent="O07wSK2jEk8nUm2FwIZC-43">
          <mxGeometry x="30" width="150" height="30" as="geometry">
            <mxRectangle width="150" height="30" as="alternateBounds" />
          </mxGeometry>
        </mxCell>
        <mxCell id="O07wSK2jEk8nUm2FwIZC-55" value="" style="edgeStyle=entityRelationEdgeStyle;fontSize=12;html=1;endArrow=ERoneToMany;rounded=0;startSize=8;endSize=8;curved=1;exitX=1;exitY=0.5;exitDx=0;exitDy=0;entryX=0;entryY=0.5;entryDx=0;entryDy=0;" edge="1" parent="1" source="O07wSK2jEk8nUm2FwIZC-37" target="O07wSK2jEk8nUm2FwIZC-52">
          <mxGeometry width="100" height="100" relative="1" as="geometry">
            <mxPoint x="161" y="-548" as="sourcePoint" />
            <mxPoint x="261" y="-648" as="targetPoint" />
          </mxGeometry>
        </mxCell>
        <mxCell id="O07wSK2jEk8nUm2FwIZC-56" value="payment_type" style="shape=table;startSize=30;container=1;collapsible=1;childLayout=tableLayout;fixedRows=1;rowLines=0;fontStyle=1;align=center;resizeLast=1;html=1;" vertex="1" parent="1">
          <mxGeometry x="-93" y="-593" width="180" height="123" as="geometry" />
        </mxCell>
        <mxCell id="O07wSK2jEk8nUm2FwIZC-57" value="" style="shape=tableRow;horizontal=0;startSize=0;swimlaneHead=0;swimlaneBody=0;fillColor=none;collapsible=0;dropTarget=0;points=[[0,0.5],[1,0.5]];portConstraint=eastwest;top=0;left=0;right=0;bottom=1;" vertex="1" parent="O07wSK2jEk8nUm2FwIZC-56">
          <mxGeometry y="30" width="180" height="30" as="geometry" />
        </mxCell>
        <mxCell id="O07wSK2jEk8nUm2FwIZC-58" value="PK" style="shape=partialRectangle;connectable=0;fillColor=none;top=0;left=0;bottom=0;right=0;fontStyle=1;overflow=hidden;whiteSpace=wrap;html=1;" vertex="1" parent="O07wSK2jEk8nUm2FwIZC-57">
          <mxGeometry width="30" height="30" as="geometry">
            <mxRectangle width="30" height="30" as="alternateBounds" />
          </mxGeometry>
        </mxCell>
        <mxCell id="O07wSK2jEk8nUm2FwIZC-59" value="payment_type_id" style="shape=partialRectangle;connectable=0;fillColor=none;top=0;left=0;bottom=0;right=0;align=left;spacingLeft=6;fontStyle=5;overflow=hidden;whiteSpace=wrap;html=1;" vertex="1" parent="O07wSK2jEk8nUm2FwIZC-57">
          <mxGeometry x="30" width="150" height="30" as="geometry">
            <mxRectangle width="150" height="30" as="alternateBounds" />
          </mxGeometry>
        </mxCell>
        <mxCell id="O07wSK2jEk8nUm2FwIZC-60" value="" style="shape=tableRow;horizontal=0;startSize=0;swimlaneHead=0;swimlaneBody=0;fillColor=none;collapsible=0;dropTarget=0;points=[[0,0.5],[1,0.5]];portConstraint=eastwest;top=0;left=0;right=0;bottom=0;" vertex="1" parent="O07wSK2jEk8nUm2FwIZC-56">
          <mxGeometry y="60" width="180" height="33" as="geometry" />
        </mxCell>
        <mxCell id="O07wSK2jEk8nUm2FwIZC-61" value="" style="shape=partialRectangle;connectable=0;fillColor=none;top=0;left=0;bottom=0;right=0;editable=1;overflow=hidden;whiteSpace=wrap;html=1;" vertex="1" parent="O07wSK2jEk8nUm2FwIZC-60">
          <mxGeometry width="30" height="33" as="geometry">
            <mxRectangle width="30" height="33" as="alternateBounds" />
          </mxGeometry>
        </mxCell>
        <mxCell id="O07wSK2jEk8nUm2FwIZC-62" value="payment_type" style="shape=partialRectangle;connectable=0;fillColor=none;top=0;left=0;bottom=0;right=0;align=left;spacingLeft=6;overflow=hidden;whiteSpace=wrap;html=1;" vertex="1" parent="O07wSK2jEk8nUm2FwIZC-60">
          <mxGeometry x="30" width="150" height="33" as="geometry">
            <mxRectangle width="150" height="33" as="alternateBounds" />
          </mxGeometry>
        </mxCell>
        <mxCell id="O07wSK2jEk8nUm2FwIZC-73" value="" style="shape=tableRow;horizontal=0;startSize=0;swimlaneHead=0;swimlaneBody=0;fillColor=none;collapsible=0;dropTarget=0;points=[[0,0.5],[1,0.5]];portConstraint=eastwest;top=0;left=0;right=0;bottom=0;" vertex="1" parent="O07wSK2jEk8nUm2FwIZC-56">
          <mxGeometry y="93" width="180" height="30" as="geometry" />
        </mxCell>
        <mxCell id="O07wSK2jEk8nUm2FwIZC-74" value="" style="shape=partialRectangle;connectable=0;fillColor=none;top=0;left=0;bottom=0;right=0;editable=1;overflow=hidden;" vertex="1" parent="O07wSK2jEk8nUm2FwIZC-73">
          <mxGeometry width="30" height="30" as="geometry">
            <mxRectangle width="30" height="30" as="alternateBounds" />
          </mxGeometry>
        </mxCell>
        <mxCell id="O07wSK2jEk8nUm2FwIZC-75" value="payment_type_name" style="shape=partialRectangle;connectable=0;fillColor=none;top=0;left=0;bottom=0;right=0;align=left;spacingLeft=6;overflow=hidden;" vertex="1" parent="O07wSK2jEk8nUm2FwIZC-73">
          <mxGeometry x="30" width="150" height="30" as="geometry">
            <mxRectangle width="150" height="30" as="alternateBounds" />
          </mxGeometry>
        </mxCell>
        <mxCell id="O07wSK2jEk8nUm2FwIZC-72" value="" style="edgeStyle=entityRelationEdgeStyle;fontSize=12;html=1;endArrow=ERoneToMany;rounded=0;startSize=8;endSize=8;curved=1;exitX=1;exitY=0.5;exitDx=0;exitDy=0;entryX=0;entryY=0.5;entryDx=0;entryDy=0;" edge="1" parent="1" source="O07wSK2jEk8nUm2FwIZC-57" target="O07wSK2jEk8nUm2FwIZC-69">
          <mxGeometry width="100" height="100" relative="1" as="geometry">
            <mxPoint x="46" y="-366" as="sourcePoint" />
            <mxPoint x="146" y="-466" as="targetPoint" />
          </mxGeometry>
        </mxCell>
      </root>
    </mxGraphModel>
  </diagram>
</mxfile>
